<mxfile host="65bd71144e" modified="2021-03-11T08:53:38.141Z" agent="5.0 (Macintosh; Intel Mac OS X 11_2_1) AppleWebKit/537.36 (KHTML, like Gecko) Code/1.54.1 Chrome/87.0.4280.141 Electron/11.3.0 Safari/537.36" etag="S6LcxYbitKNdpmGm0kLF" version="14.2.4" type="embed">
    <diagram id="ByqBjPeusiM-mxN_b8nl" name="Page-1">
        <mxGraphModel dx="14" dy="611" grid="1" gridSize="10" guides="1" tooltips="1" connect="1" arrows="1" fold="1" page="1" pageScale="1" pageWidth="827" pageHeight="1169" math="0" shadow="0">
            <root>
                <mxCell id="0"/>
                <mxCell id="1" parent="0"/>
                <mxCell id="91" value="Back-end" style="rounded=0;whiteSpace=wrap;html=1;horizontal=0;verticalAlign=top;fontStyle=1;fillColor=#EEE;strokeColor=none;fontColor=#001029;" parent="1" vertex="1">
                    <mxGeometry x="960" y="399.6" width="620" height="120" as="geometry"/>
                </mxCell>
                <mxCell id="40" style="edgeStyle=orthogonalEdgeStyle;rounded=0;orthogonalLoop=1;jettySize=auto;html=1;exitX=0.25;exitY=0;exitDx=0;exitDy=0;startArrow=block;startFill=1;endArrow=block;endFill=1;strokeColor=#001028;fontColor=#FFFFFF;" parent="1" source="41" edge="1">
                    <mxGeometry relative="1" as="geometry">
                        <mxPoint x="1115" y="130" as="targetPoint"/>
                    </mxGeometry>
                </mxCell>
                <mxCell id="41" value="Front-end" style="rounded=0;whiteSpace=wrap;html=1;horizontal=0;verticalAlign=top;fontStyle=1;fillColor=#EEE;strokeColor=none;fontColor=#001029;" parent="1" vertex="1">
                    <mxGeometry x="960" y="200" width="620" height="120" as="geometry"/>
                </mxCell>
                <mxCell id="42" value="Bezoeker" style="shape=umlActor;verticalLabelPosition=bottom;verticalAlign=top;html=1;outlineConnect=0;strokeWidth=2;fontColor=#001028;fillColor=#001028;strokeColor=#001028;" parent="1" vertex="1">
                    <mxGeometry x="1100" y="20" width="30" height="60" as="geometry"/>
                </mxCell>
                <mxCell id="53" value="Presentatie" style="shape=image;imageAspect=0;aspect=fixed;verticalLabelPosition=bottom;verticalAlign=top;strokeColor=#2B4C7F;strokeWidth=2;fillColor=none;image=data:image/svg+xml,PHN2ZyB4bWxucz0iaHR0cDovL3d3dy53My5vcmcvMjAwMC9zdmciIHdpZHRoPSI5OS45OTgxMDAyODA3NjE3MiIgaGVpZ2h0PSI4Ny4wMTk5MDUwOTAzMzIwMyIgdmlld0JveD0iMCA2LjcyOTQ4OTgwMzMxNDIwOSA5OS45OTgxMDAyODA3NjE3MiA4Ny4wMTk5MDUwOTAzMzIwMyIgZmlsbD0ibm9uZSI+JiN4YTs8cGF0aCBkPSJNNDMuODA4NiA2OS4yMDkzQzQ2LjI0NTEgNjkuMjA5MyA0OC4yMjg0IDY3LjIyNiA0OC4yMjg0IDY0Ljc4OTZDNDguMjI4NCA2Mi4zNTMyIDQ2LjI0NTEgNjAuMzY5OSA0My44MDg2IDYwLjM2OTlDNDEuMzcyMiA2MC4zNjk5IDM5LjM4ODkgNjIuMzUzMiAzOS4zODg5IDY0Ljc4OTZDMzkuMzg4OSA2Ny4yMjYgNDEuMzcyMiA2OS4yMDkzIDQzLjgwODYgNjkuMjA5M1pNNDMuODA4NiA2Mi45NjJDNDQuODE2MSA2Mi45NjIgNDUuNjM2MyA2My43ODIxIDQ1LjYzNjMgNjQuNzg5NkM0NS42MzYzIDY1Ljc5NzEgNDQuODE2MSA2Ni42MTcyIDQzLjgwODYgNjYuNjE3MkM0Mi44MDEyIDY2LjYxNzIgNDEuOTgxIDY1Ljc5NzEgNDEuOTgxIDY0Ljc4OTZDNDEuOTgxIDYzLjc4MjEgNDIuODAxMiA2Mi45NjIgNDMuODA4NiA2Mi45NjJaIiBmaWxsPSIjOEZCRTAwIi8+JiN4YTs8cGF0aCBkPSJNOTQuNDkxMiAyNi44ODUzSDg3LjYxNzNWMTIuOTU1M0M4Ny42MTczIDkuNTIyODMgODQuODI0IDYuNzI5NDkgODEuMzkxNSA2LjcyOTQ5SDYuMjI0NTdDMi43OTIwNyA2LjcyOTQ5IDAgOS41MjI4MyAwIDEyLjk1NTNWNjYuOTc4QzAgNzAuNDEwNSAyLjc5MjA3IDczLjIwMjUgNi4yMjQ1NyA3My4yMDI1SDI5LjE0MjFWNzYuNjA1OUgyNC4wNzgxQzIwLjU1MiA3Ni42MDU5IDE3LjY4NCA3OS40NzM5IDE3LjY4NCA4My4wMDAxVjg0LjEyMTVDMTcuNjg0IDg0LjgzNzggMTguMjYzNiA4NS40MTc1IDE4Ljk4IDg1LjQxNzVINTIuMzU1N1Y4OC4yNDI1QzUyLjM1NTcgOTEuMjc4OCA1NC44MjYzIDkzLjc0OTQgNTcuODYyNyA5My43NDk0SDk0LjQ5MTJDOTcuNTI3NSA5My43NDk0IDk5Ljk5ODEgOTEuMjc4OCA5OS45OTgxIDg4LjI0MjVWMzIuMzkyMkM5OS45OTgxIDI5LjM1NTkgOTcuNTI3NSAyNi44ODUzIDk0LjQ5MTIgMjYuODg1M1pNNTIuMzU1NyA4Mi44MjU0SDIwLjI3OThDMjAuMzcxIDgwLjgwOTIgMjIuMDQwNCA3OS4xOTggMjQuMDc4MSA3OS4xOThINTIuMzU1N1Y4Mi44MjU0Wk01Mi4zNTU3IDc2LjYwNTlIMzEuNzM0MlY3My4yMDI1SDUyLjM1NTdWNzYuNjA1OVpNNTIuMzU1NyA3MC42MTA0SDYuMjI0NTdDNC4yMjEwMSA3MC42MTA0IDIuNTkyMDkgNjguOTgxNSAyLjU5MjA5IDY2Ljk3OFY1OS40MTQzSDUyLjM1NTdWNzAuNjEwNFpNNTIuMzU1NyAzMi4zOTIyVjU2LjgyMjJIMi41OTIwOVYxMi45NTUzQzIuNTkyMDkgMTAuOTUxOCA0LjIyMTAxIDkuMzIxNTkgNi4yMjQ1NyA5LjMyMTU5SDgxLjM5MTVDODMuMzk1MSA5LjMyMTU5IDg1LjAyNTIgMTAuOTUxOCA4NS4wMjUyIDEyLjk1NTNWMjYuODg1M0g1Ny44NjI3QzU0LjgyNjMgMjYuODg1MyA1Mi4zNTU3IDI5LjM1NTkgNTIuMzU1NyAzMi4zOTIyWk05Ny40MDYgODguMjQyNUM5Ny40MDYgODkuODQ5OSA5Ni4wOTg2IDkxLjE1NzMgOTQuNDkxMiA5MS4xNTczSDU3Ljg2MjdDNTYuMjU1MyA5MS4xNTczIDU0Ljk0NzggODkuODQ5OSA1NC45NDc4IDg4LjI0MjVWMzIuMzkyMkM1NC45NDc4IDMwLjc4NDggNTYuMjU1MyAyOS40Nzc0IDU3Ljg2MjcgMjkuNDc3NEg5NC40OTEyQzk2LjA5ODYgMjkuNDc3NCA5Ny40MDYgMzAuNzg0OCA5Ny40MDYgMzIuMzkyMlY4OC4yNDI1WiIgZmlsbD0iIzAwMTAyOCIvPiYjeGE7PHBhdGggZD0iTTk0LjE0OTQgMzIuMzQxNkg1OC4yMDQ0QzU3LjQ4OCAzMi4zNDE2IDU2LjkwODMgMzIuOTIxMyA1Ni45MDgzIDMzLjYzNzdWODMuMTA1MUM1Ni45MDgzIDgzLjgyMTUgNTcuNDg4IDg0LjQwMTIgNTguMjA0NCA4NC40MDEySDk0LjE0OTRDOTQuODY1OCA4NC40MDEyIDk1LjQ0NTUgODMuODIxNSA5NS40NDU1IDgzLjEwNTFWMzMuNjM3N0M5NS40NDU1IDMyLjkyMTMgOTQuODY1OCAzMi4zNDE2IDk0LjE0OTQgMzIuMzQxNlpNOTIuODUzNCA4MS44MDkxSDU5LjUwMDRWMzQuOTMzN0g5Mi44NTM0VjgxLjgwOTFaIiBmaWxsPSIjOEZCRTAwIi8+JiN4YTs8L3N2Zz4=;fontColor=#001028;" parent="1" vertex="1">
                    <mxGeometry x="1092.01" y="230" width="45.98" height="40" as="geometry"/>
                </mxCell>
                <mxCell id="54" value="Onboarding" style="shape=image;imageAspect=0;aspect=fixed;verticalLabelPosition=bottom;verticalAlign=top;strokeColor=#2B4C7F;strokeWidth=2;fillColor=none;image=data:image/svg+xml,PHN2ZyB4bWxucz0iaHR0cDovL3d3dy53My5vcmcvMjAwMC9zdmciIHdpZHRoPSI5OS45OTgxMDAyODA3NjE3MiIgaGVpZ2h0PSI4Ny4wMTk5MDUwOTAzMzIwMyIgdmlld0JveD0iMCA2LjcyOTQ4OTgwMzMxNDIwOSA5OS45OTgxMDAyODA3NjE3MiA4Ny4wMTk5MDUwOTAzMzIwMyIgZmlsbD0ibm9uZSI+JiN4YTs8cGF0aCBkPSJNNDMuODA4NiA2OS4yMDkzQzQ2LjI0NTEgNjkuMjA5MyA0OC4yMjg0IDY3LjIyNiA0OC4yMjg0IDY0Ljc4OTZDNDguMjI4NCA2Mi4zNTMyIDQ2LjI0NTEgNjAuMzY5OSA0My44MDg2IDYwLjM2OTlDNDEuMzcyMiA2MC4zNjk5IDM5LjM4ODkgNjIuMzUzMiAzOS4zODg5IDY0Ljc4OTZDMzkuMzg4OSA2Ny4yMjYgNDEuMzcyMiA2OS4yMDkzIDQzLjgwODYgNjkuMjA5M1pNNDMuODA4NiA2Mi45NjJDNDQuODE2MSA2Mi45NjIgNDUuNjM2MyA2My43ODIxIDQ1LjYzNjMgNjQuNzg5NkM0NS42MzYzIDY1Ljc5NzEgNDQuODE2MSA2Ni42MTcyIDQzLjgwODYgNjYuNjE3MkM0Mi44MDEyIDY2LjYxNzIgNDEuOTgxIDY1Ljc5NzEgNDEuOTgxIDY0Ljc4OTZDNDEuOTgxIDYzLjc4MjEgNDIuODAxMiA2Mi45NjIgNDMuODA4NiA2Mi45NjJaIiBmaWxsPSIjOEZCRTAwIi8+JiN4YTs8cGF0aCBkPSJNOTQuNDkxMiAyNi44ODUzSDg3LjYxNzNWMTIuOTU1M0M4Ny42MTczIDkuNTIyODMgODQuODI0IDYuNzI5NDkgODEuMzkxNSA2LjcyOTQ5SDYuMjI0NTdDMi43OTIwNyA2LjcyOTQ5IDAgOS41MjI4MyAwIDEyLjk1NTNWNjYuOTc4QzAgNzAuNDEwNSAyLjc5MjA3IDczLjIwMjUgNi4yMjQ1NyA3My4yMDI1SDI5LjE0MjFWNzYuNjA1OUgyNC4wNzgxQzIwLjU1MiA3Ni42MDU5IDE3LjY4NCA3OS40NzM5IDE3LjY4NCA4My4wMDAxVjg0LjEyMTVDMTcuNjg0IDg0LjgzNzggMTguMjYzNiA4NS40MTc1IDE4Ljk4IDg1LjQxNzVINTIuMzU1N1Y4OC4yNDI1QzUyLjM1NTcgOTEuMjc4OCA1NC44MjYzIDkzLjc0OTQgNTcuODYyNyA5My43NDk0SDk0LjQ5MTJDOTcuNTI3NSA5My43NDk0IDk5Ljk5ODEgOTEuMjc4OCA5OS45OTgxIDg4LjI0MjVWMzIuMzkyMkM5OS45OTgxIDI5LjM1NTkgOTcuNTI3NSAyNi44ODUzIDk0LjQ5MTIgMjYuODg1M1pNNTIuMzU1NyA4Mi44MjU0SDIwLjI3OThDMjAuMzcxIDgwLjgwOTIgMjIuMDQwNCA3OS4xOTggMjQuMDc4MSA3OS4xOThINTIuMzU1N1Y4Mi44MjU0Wk01Mi4zNTU3IDc2LjYwNTlIMzEuNzM0MlY3My4yMDI1SDUyLjM1NTdWNzYuNjA1OVpNNTIuMzU1NyA3MC42MTA0SDYuMjI0NTdDNC4yMjEwMSA3MC42MTA0IDIuNTkyMDkgNjguOTgxNSAyLjU5MjA5IDY2Ljk3OFY1OS40MTQzSDUyLjM1NTdWNzAuNjEwNFpNNTIuMzU1NyAzMi4zOTIyVjU2LjgyMjJIMi41OTIwOVYxMi45NTUzQzIuNTkyMDkgMTAuOTUxOCA0LjIyMTAxIDkuMzIxNTkgNi4yMjQ1NyA5LjMyMTU5SDgxLjM5MTVDODMuMzk1MSA5LjMyMTU5IDg1LjAyNTIgMTAuOTUxOCA4NS4wMjUyIDEyLjk1NTNWMjYuODg1M0g1Ny44NjI3QzU0LjgyNjMgMjYuODg1MyA1Mi4zNTU3IDI5LjM1NTkgNTIuMzU1NyAzMi4zOTIyWk05Ny40MDYgODguMjQyNUM5Ny40MDYgODkuODQ5OSA5Ni4wOTg2IDkxLjE1NzMgOTQuNDkxMiA5MS4xNTczSDU3Ljg2MjdDNTYuMjU1MyA5MS4xNTczIDU0Ljk0NzggODkuODQ5OSA1NC45NDc4IDg4LjI0MjVWMzIuMzkyMkM1NC45NDc4IDMwLjc4NDggNTYuMjU1MyAyOS40Nzc0IDU3Ljg2MjcgMjkuNDc3NEg5NC40OTEyQzk2LjA5ODYgMjkuNDc3NCA5Ny40MDYgMzAuNzg0OCA5Ny40MDYgMzIuMzkyMlY4OC4yNDI1WiIgZmlsbD0iIzAwMTAyOCIvPiYjeGE7PHBhdGggZD0iTTk0LjE0OTQgMzIuMzQxNkg1OC4yMDQ0QzU3LjQ4OCAzMi4zNDE2IDU2LjkwODMgMzIuOTIxMyA1Ni45MDgzIDMzLjYzNzdWODMuMTA1MUM1Ni45MDgzIDgzLjgyMTUgNTcuNDg4IDg0LjQwMTIgNTguMjA0NCA4NC40MDEySDk0LjE0OTRDOTQuODY1OCA4NC40MDEyIDk1LjQ0NTUgODMuODIxNSA5NS40NDU1IDgzLjEwNTFWMzMuNjM3N0M5NS40NDU1IDMyLjkyMTMgOTQuODY1OCAzMi4zNDE2IDk0LjE0OTQgMzIuMzQxNlpNOTIuODUzNCA4MS44MDkxSDU5LjUwMDRWMzQuOTMzN0g5Mi44NTM0VjgxLjgwOTFaIiBmaWxsPSIjOEZCRTAwIi8+JiN4YTs8L3N2Zz4=;fontColor=#001028;" parent="1" vertex="1">
                    <mxGeometry x="1360.5" y="230" width="45.98" height="40" as="geometry"/>
                </mxCell>
                <mxCell id="55" value="Beheer" style="shape=image;imageAspect=0;aspect=fixed;verticalLabelPosition=bottom;verticalAlign=top;strokeColor=#2B4C7F;strokeWidth=2;fillColor=none;image=data:image/svg+xml,PHN2ZyB4bWxucz0iaHR0cDovL3d3dy53My5vcmcvMjAwMC9zdmciIHdpZHRoPSI5OS45OTgxMDAyODA3NjE3MiIgaGVpZ2h0PSI4Ny4wMTk5MDUwOTAzMzIwMyIgdmlld0JveD0iMCA2LjcyOTQ4OTgwMzMxNDIwOSA5OS45OTgxMDAyODA3NjE3MiA4Ny4wMTk5MDUwOTAzMzIwMyIgZmlsbD0ibm9uZSI+JiN4YTs8cGF0aCBkPSJNNDMuODA4NiA2OS4yMDkzQzQ2LjI0NTEgNjkuMjA5MyA0OC4yMjg0IDY3LjIyNiA0OC4yMjg0IDY0Ljc4OTZDNDguMjI4NCA2Mi4zNTMyIDQ2LjI0NTEgNjAuMzY5OSA0My44MDg2IDYwLjM2OTlDNDEuMzcyMiA2MC4zNjk5IDM5LjM4ODkgNjIuMzUzMiAzOS4zODg5IDY0Ljc4OTZDMzkuMzg4OSA2Ny4yMjYgNDEuMzcyMiA2OS4yMDkzIDQzLjgwODYgNjkuMjA5M1pNNDMuODA4NiA2Mi45NjJDNDQuODE2MSA2Mi45NjIgNDUuNjM2MyA2My43ODIxIDQ1LjYzNjMgNjQuNzg5NkM0NS42MzYzIDY1Ljc5NzEgNDQuODE2MSA2Ni42MTcyIDQzLjgwODYgNjYuNjE3MkM0Mi44MDEyIDY2LjYxNzIgNDEuOTgxIDY1Ljc5NzEgNDEuOTgxIDY0Ljc4OTZDNDEuOTgxIDYzLjc4MjEgNDIuODAxMiA2Mi45NjIgNDMuODA4NiA2Mi45NjJaIiBmaWxsPSIjOEZCRTAwIi8+JiN4YTs8cGF0aCBkPSJNOTQuNDkxMiAyNi44ODUzSDg3LjYxNzNWMTIuOTU1M0M4Ny42MTczIDkuNTIyODMgODQuODI0IDYuNzI5NDkgODEuMzkxNSA2LjcyOTQ5SDYuMjI0NTdDMi43OTIwNyA2LjcyOTQ5IDAgOS41MjI4MyAwIDEyLjk1NTNWNjYuOTc4QzAgNzAuNDEwNSAyLjc5MjA3IDczLjIwMjUgNi4yMjQ1NyA3My4yMDI1SDI5LjE0MjFWNzYuNjA1OUgyNC4wNzgxQzIwLjU1MiA3Ni42MDU5IDE3LjY4NCA3OS40NzM5IDE3LjY4NCA4My4wMDAxVjg0LjEyMTVDMTcuNjg0IDg0LjgzNzggMTguMjYzNiA4NS40MTc1IDE4Ljk4IDg1LjQxNzVINTIuMzU1N1Y4OC4yNDI1QzUyLjM1NTcgOTEuMjc4OCA1NC44MjYzIDkzLjc0OTQgNTcuODYyNyA5My43NDk0SDk0LjQ5MTJDOTcuNTI3NSA5My43NDk0IDk5Ljk5ODEgOTEuMjc4OCA5OS45OTgxIDg4LjI0MjVWMzIuMzkyMkM5OS45OTgxIDI5LjM1NTkgOTcuNTI3NSAyNi44ODUzIDk0LjQ5MTIgMjYuODg1M1pNNTIuMzU1NyA4Mi44MjU0SDIwLjI3OThDMjAuMzcxIDgwLjgwOTIgMjIuMDQwNCA3OS4xOTggMjQuMDc4MSA3OS4xOThINTIuMzU1N1Y4Mi44MjU0Wk01Mi4zNTU3IDc2LjYwNTlIMzEuNzM0MlY3My4yMDI1SDUyLjM1NTdWNzYuNjA1OVpNNTIuMzU1NyA3MC42MTA0SDYuMjI0NTdDNC4yMjEwMSA3MC42MTA0IDIuNTkyMDkgNjguOTgxNSAyLjU5MjA5IDY2Ljk3OFY1OS40MTQzSDUyLjM1NTdWNzAuNjEwNFpNNTIuMzU1NyAzMi4zOTIyVjU2LjgyMjJIMi41OTIwOVYxMi45NTUzQzIuNTkyMDkgMTAuOTUxOCA0LjIyMTAxIDkuMzIxNTkgNi4yMjQ1NyA5LjMyMTU5SDgxLjM5MTVDODMuMzk1MSA5LjMyMTU5IDg1LjAyNTIgMTAuOTUxOCA4NS4wMjUyIDEyLjk1NTNWMjYuODg1M0g1Ny44NjI3QzU0LjgyNjMgMjYuODg1MyA1Mi4zNTU3IDI5LjM1NTkgNTIuMzU1NyAzMi4zOTIyWk05Ny40MDYgODguMjQyNUM5Ny40MDYgODkuODQ5OSA5Ni4wOTg2IDkxLjE1NzMgOTQuNDkxMiA5MS4xNTczSDU3Ljg2MjdDNTYuMjU1MyA5MS4xNTczIDU0Ljk0NzggODkuODQ5OSA1NC45NDc4IDg4LjI0MjVWMzIuMzkyMkM1NC45NDc4IDMwLjc4NDggNTYuMjU1MyAyOS40Nzc0IDU3Ljg2MjcgMjkuNDc3NEg5NC40OTEyQzk2LjA5ODYgMjkuNDc3NCA5Ny40MDYgMzAuNzg0OCA5Ny40MDYgMzIuMzkyMlY4OC4yNDI1WiIgZmlsbD0iIzAwMTAyOCIvPiYjeGE7PHBhdGggZD0iTTk0LjE0OTQgMzIuMzQxNkg1OC4yMDQ0QzU3LjQ4OCAzMi4zNDE2IDU2LjkwODMgMzIuOTIxMyA1Ni45MDgzIDMzLjYzNzdWODMuMTA1MUM1Ni45MDgzIDgzLjgyMTUgNTcuNDg4IDg0LjQwMTIgNTguMjA0NCA4NC40MDEySDk0LjE0OTRDOTQuODY1OCA4NC40MDEyIDk1LjQ0NTUgODMuODIxNSA5NS40NDU1IDgzLjEwNTFWMzMuNjM3N0M5NS40NDU1IDMyLjkyMTMgOTQuODY1OCAzMi4zNDE2IDk0LjE0OTQgMzIuMzQxNlpNOTIuODUzNCA4MS44MDkxSDU5LjUwMDRWMzQuOTMzN0g5Mi44NTM0VjgxLjgwOTFaIiBmaWxsPSIjOEZCRTAwIi8+JiN4YTs8L3N2Zz4=;fontColor=#001028;" parent="1" vertex="1">
                    <mxGeometry x="1443.52" y="230" width="45.98" height="40" as="geometry"/>
                </mxCell>
                <mxCell id="62" value="Netwerk Digitaal Erfgoed" style="rounded=0;whiteSpace=wrap;html=1;rotation=-90;fontColor=#FFFFFF;fillColor=#001028;strokeColor=none;" parent="1" vertex="1">
                    <mxGeometry x="740" y="340" width="320" height="40" as="geometry"/>
                </mxCell>
                <mxCell id="70" value="5" style="ellipse;whiteSpace=wrap;html=1;aspect=fixed;fontColor=#FFFFFF;fillColor=#8FBE00;strokeColor=none;" parent="1" vertex="1">
                    <mxGeometry x="1060" y="150" width="30" height="30" as="geometry"/>
                </mxCell>
                <mxCell id="74" value="(hoofd-) Beheerder&lt;br&gt;Registrator" style="shape=umlActor;verticalLabelPosition=bottom;verticalAlign=top;html=1;outlineConnect=0;strokeWidth=2;fontColor=#001028;fillColor=#001028;strokeColor=#001028;" parent="1" vertex="1">
                    <mxGeometry x="1410" y="20" width="30" height="60" as="geometry"/>
                </mxCell>
                <mxCell id="76" style="edgeStyle=orthogonalEdgeStyle;rounded=0;orthogonalLoop=1;jettySize=auto;html=1;exitX=0.75;exitY=0;exitDx=0;exitDy=0;startArrow=block;startFill=1;endArrow=block;endFill=1;strokeColor=#001028;fontColor=#FFFFFF;" parent="1" source="41" edge="1">
                    <mxGeometry relative="1" as="geometry">
                        <mxPoint x="1425" y="130" as="targetPoint"/>
                        <mxPoint x="1125" y="210" as="sourcePoint"/>
                    </mxGeometry>
                </mxCell>
                <mxCell id="77" value="1" style="ellipse;whiteSpace=wrap;html=1;aspect=fixed;fontColor=#FFFFFF;fillColor=#8FBE00;strokeColor=none;" parent="1" vertex="1">
                    <mxGeometry x="1374.5" y="150" width="30" height="30" as="geometry"/>
                </mxCell>
                <mxCell id="78" value="Storage" style="rounded=0;whiteSpace=wrap;html=1;horizontal=0;verticalAlign=top;fontStyle=1;fillColor=#EEE;strokeColor=none;fontColor=#001029;" parent="1" vertex="1">
                    <mxGeometry x="960" y="600" width="300" height="120" as="geometry"/>
                </mxCell>
                <mxCell id="79" value="Identity" style="rounded=0;whiteSpace=wrap;html=1;horizontal=0;verticalAlign=top;fontStyle=1;fillColor=#EEE;strokeColor=none;fontColor=#001029;" parent="1" vertex="1">
                    <mxGeometry x="1280" y="600" width="300" height="120" as="geometry"/>
                </mxCell>
                <mxCell id="81" value="Solid-OIDC&lt;br&gt;Provider" style="rounded=0;whiteSpace=wrap;html=1;strokeWidth=2;fillColor=#2B4C7F;fontColor=#FFFFFF;strokeColor=#2B4C7F;" parent="1" vertex="1">
                    <mxGeometry x="1380" y="640" width="100" height="40" as="geometry"/>
                </mxCell>
                <mxCell id="83" value="Pod Server" style="rounded=0;whiteSpace=wrap;html=1;horizontal=1;verticalAlign=top;strokeWidth=2;dashed=1;fillColor=none;strokeColor=#001028;fontColor=#001028;" parent="1" vertex="1">
                    <mxGeometry x="1005.98" y="620" width="231" height="80" as="geometry"/>
                </mxCell>
                <mxCell id="84" value="Pod" style="rounded=0;whiteSpace=wrap;html=1;fillColor=#2B4C7F;fontColor=#FFFFFF;strokeColor=#2B4C7F;" parent="1" vertex="1">
                    <mxGeometry x="1021.98" y="655" width="60" height="30" as="geometry"/>
                </mxCell>
                <mxCell id="85" value="Pod" style="rounded=0;whiteSpace=wrap;html=1;fillColor=#2B4C7F;fontColor=#FFFFFF;strokeColor=#2B4C7F;" parent="1" vertex="1">
                    <mxGeometry x="1091.98" y="655" width="60" height="30" as="geometry"/>
                </mxCell>
                <mxCell id="86" value="..." style="rounded=0;whiteSpace=wrap;html=1;strokeColor=none;fillColor=none;fontColor=#2B4C7F;" parent="1" vertex="1">
                    <mxGeometry x="1161.98" y="655" width="60" height="30" as="geometry"/>
                </mxCell>
                <mxCell id="87" value="Solid" style="rounded=0;whiteSpace=wrap;html=1;rotation=-90;fontColor=#FFFFFF;fillColor=#001028;strokeColor=none;" parent="1" vertex="1">
                    <mxGeometry x="840" y="640" width="120" height="40" as="geometry"/>
                </mxCell>
                <mxCell id="88" style="edgeStyle=orthogonalEdgeStyle;rounded=0;orthogonalLoop=1;jettySize=auto;html=1;exitX=0.5;exitY=0;exitDx=0;exitDy=0;startArrow=block;startFill=1;endArrow=block;endFill=1;strokeColor=#001028;fontColor=#FFFFFF;entryX=0.5;entryY=1;entryDx=0;entryDy=0;" parent="1" source="78" target="91" edge="1">
                    <mxGeometry relative="1" as="geometry">
                        <mxPoint x="1125" y="180" as="targetPoint"/>
                        <mxPoint x="1125" y="250" as="sourcePoint"/>
                    </mxGeometry>
                </mxCell>
                <mxCell id="89" style="edgeStyle=orthogonalEdgeStyle;rounded=0;orthogonalLoop=1;jettySize=auto;html=1;exitX=0.5;exitY=0;exitDx=0;exitDy=0;startArrow=block;startFill=1;endArrow=block;endFill=1;strokeColor=#001028;fontColor=#FFFFFF;entryX=0.5;entryY=1;entryDx=0;entryDy=0;" parent="1" source="79" target="91" edge="1">
                    <mxGeometry relative="1" as="geometry">
                        <mxPoint x="1135" y="190" as="targetPoint"/>
                        <mxPoint x="1135" y="260" as="sourcePoint"/>
                    </mxGeometry>
                </mxCell>
                <mxCell id="95" value="Digita Connect" style="rounded=0;whiteSpace=wrap;html=1;fillColor=#2B4C7F;fontColor=#FFFFFF;strokeColor=#2B4C7F;" parent="1" vertex="1">
                    <mxGeometry x="1200" y="420" width="140" height="80" as="geometry"/>
                </mxCell>
                <mxCell id="98" style="edgeStyle=orthogonalEdgeStyle;rounded=0;orthogonalLoop=1;jettySize=auto;html=1;exitX=0.5;exitY=0;exitDx=0;exitDy=0;startArrow=block;startFill=1;endArrow=block;endFill=1;strokeColor=#001028;fontColor=#FFFFFF;entryX=0.5;entryY=1;entryDx=0;entryDy=0;" parent="1" source="91" target="41" edge="1">
                    <mxGeometry relative="1" as="geometry">
                        <mxPoint x="1115" y="300" as="targetPoint"/>
                        <mxPoint x="1125" y="210" as="sourcePoint"/>
                    </mxGeometry>
                </mxCell>
                <mxCell id="99" value="Search Server" style="rounded=0;whiteSpace=wrap;html=1;strokeWidth=2;fillColor=#2B4C7F;fontColor=#FFFFFF;strokeColor=#2B4C7F;" parent="1" vertex="1">
                    <mxGeometry x="1430" y="440" width="100" height="40" as="geometry"/>
                </mxCell>
                <mxCell id="100" style="edgeStyle=orthogonalEdgeStyle;rounded=0;orthogonalLoop=1;jettySize=auto;html=1;exitX=1;exitY=0.5;exitDx=0;exitDy=0;startArrow=block;startFill=1;endArrow=block;endFill=1;strokeColor=#001028;fontColor=#FFFFFF;entryX=0;entryY=0.5;entryDx=0;entryDy=0;" parent="1" source="95" target="99" edge="1">
                    <mxGeometry relative="1" as="geometry">
                        <mxPoint x="1125" y="140" as="targetPoint"/>
                        <mxPoint x="1125" y="210" as="sourcePoint"/>
                    </mxGeometry>
                </mxCell>
                <mxCell id="101" style="edgeStyle=orthogonalEdgeStyle;rounded=0;orthogonalLoop=1;jettySize=auto;html=1;exitX=1;exitY=0.5;exitDx=0;exitDy=0;startArrow=block;startFill=1;endArrow=block;endFill=1;strokeColor=#001028;fontColor=#FFFFFF;entryX=0;entryY=0.5;entryDx=0;entryDy=0;" parent="1" source="94" target="95" edge="1">
                    <mxGeometry relative="1" as="geometry">
                        <mxPoint x="1450" y="470" as="targetPoint"/>
                        <mxPoint x="1355" y="470" as="sourcePoint"/>
                    </mxGeometry>
                </mxCell>
                <mxCell id="119" value="" style="group" parent="1" vertex="1" connectable="0">
                    <mxGeometry x="990" y="420" width="150" height="80" as="geometry"/>
                </mxCell>
                <mxCell id="94" value="" style="rounded=0;whiteSpace=wrap;html=1;horizontal=1;verticalAlign=top;strokeWidth=2;dashed=1;fillColor=none;fontColor=#001028;strokeColor=none;" parent="119" vertex="1">
                    <mxGeometry x="10" width="120" height="80" as="geometry"/>
                </mxCell>
                <mxCell id="102" value="" style="ellipse;whiteSpace=wrap;html=1;strokeColor=#2B4C7F;fontColor=#001029;fillColor=#2B4C7F;" parent="119" vertex="1">
                    <mxGeometry x="30" y="19.600000000000023" width="10" height="10" as="geometry"/>
                </mxCell>
                <mxCell id="103" value="" style="ellipse;whiteSpace=wrap;html=1;strokeColor=#2B4C7F;fontColor=#001029;fillColor=#2B4C7F;" parent="119" vertex="1">
                    <mxGeometry x="50" y="55" width="10" height="10" as="geometry"/>
                </mxCell>
                <mxCell id="104" value="" style="ellipse;whiteSpace=wrap;html=1;strokeColor=#2B4C7F;fontColor=#001029;fillColor=#2B4C7F;" parent="119" vertex="1">
                    <mxGeometry x="90" y="10" width="10" height="10" as="geometry"/>
                </mxCell>
                <mxCell id="105" value="" style="ellipse;whiteSpace=wrap;html=1;strokeColor=#2B4C7F;fontColor=#001029;fillColor=#2B4C7F;" parent="119" vertex="1">
                    <mxGeometry x="100" y="60" width="10" height="10" as="geometry"/>
                </mxCell>
                <mxCell id="106" value="" style="ellipse;whiteSpace=wrap;html=1;strokeColor=#2B4C7F;fontColor=#001029;fillColor=#2B4C7F;" parent="119" vertex="1">
                    <mxGeometry x="70" y="25" width="10" height="10" as="geometry"/>
                </mxCell>
                <mxCell id="107" value="" style="ellipse;whiteSpace=wrap;html=1;strokeColor=#2B4C7F;fontColor=#001029;fillColor=#2B4C7F;" parent="119" vertex="1">
                    <mxGeometry x="110" y="35" width="10" height="10" as="geometry"/>
                </mxCell>
                <mxCell id="109" style="rounded=0;orthogonalLoop=1;jettySize=auto;html=1;exitX=1;exitY=0;exitDx=0;exitDy=0;startArrow=none;startFill=0;endArrow=none;endFill=0;fontColor=#FFFFFF;entryX=0;entryY=0.5;entryDx=0;entryDy=0;strokeColor=#2B4C7F;dashed=1;dashPattern=1 1;" parent="119" source="102" target="104" edge="1">
                    <mxGeometry relative="1" as="geometry">
                        <mxPoint x="270" y="-90" as="targetPoint"/>
                        <mxPoint x="270" y="-10.399999999999977" as="sourcePoint"/>
                    </mxGeometry>
                </mxCell>
                <mxCell id="110" style="rounded=0;orthogonalLoop=1;jettySize=auto;html=1;exitX=1;exitY=1;exitDx=0;exitDy=0;startArrow=none;startFill=0;endArrow=none;endFill=0;fontColor=#FFFFFF;entryX=0;entryY=0;entryDx=0;entryDy=0;strokeColor=#2B4C7F;dashed=1;dashPattern=1 1;" parent="119" source="102" target="103" edge="1">
                    <mxGeometry relative="1" as="geometry">
                        <mxPoint x="100" y="25" as="targetPoint"/>
                        <mxPoint x="48.535533905932425" y="31.06446609406737" as="sourcePoint"/>
                    </mxGeometry>
                </mxCell>
                <mxCell id="111" style="rounded=0;orthogonalLoop=1;jettySize=auto;html=1;exitX=1;exitY=1;exitDx=0;exitDy=0;startArrow=none;startFill=0;endArrow=none;endFill=0;fontColor=#FFFFFF;entryX=0;entryY=0.5;entryDx=0;entryDy=0;strokeColor=#2B4C7F;dashed=1;dashPattern=1 1;" parent="119" source="103" target="105" edge="1">
                    <mxGeometry relative="1" as="geometry">
                        <mxPoint x="110" y="35" as="targetPoint"/>
                        <mxPoint x="58.535533905932425" y="41.06446609406737" as="sourcePoint"/>
                    </mxGeometry>
                </mxCell>
                <mxCell id="112" style="rounded=0;orthogonalLoop=1;jettySize=auto;html=1;exitX=1;exitY=0;exitDx=0;exitDy=0;startArrow=none;startFill=0;endArrow=none;endFill=0;fontColor=#FFFFFF;entryX=0;entryY=1;entryDx=0;entryDy=0;strokeColor=#2B4C7F;dashed=1;dashPattern=1 1;" parent="119" source="103" target="106" edge="1">
                    <mxGeometry relative="1" as="geometry">
                        <mxPoint x="120" y="45" as="targetPoint"/>
                        <mxPoint x="68.53553390593243" y="51.06446609406737" as="sourcePoint"/>
                    </mxGeometry>
                </mxCell>
                <mxCell id="113" style="rounded=0;orthogonalLoop=1;jettySize=auto;html=1;exitX=1;exitY=1;exitDx=0;exitDy=0;startArrow=none;startFill=0;endArrow=none;endFill=0;fontColor=#FFFFFF;entryX=0;entryY=0;entryDx=0;entryDy=0;strokeColor=#2B4C7F;dashed=1;dashPattern=1 1;" parent="119" source="104" target="107" edge="1">
                    <mxGeometry relative="1" as="geometry">
                        <mxPoint x="130" y="55" as="targetPoint"/>
                        <mxPoint x="78.53553390593243" y="61.06446609406737" as="sourcePoint"/>
                    </mxGeometry>
                </mxCell>
                <mxCell id="114" style="rounded=0;orthogonalLoop=1;jettySize=auto;html=1;exitX=0.5;exitY=0;exitDx=0;exitDy=0;startArrow=none;startFill=0;endArrow=none;endFill=0;fontColor=#FFFFFF;entryX=0.5;entryY=1;entryDx=0;entryDy=0;strokeColor=#2B4C7F;dashed=1;dashPattern=1 1;" parent="119" source="105" target="107" edge="1">
                    <mxGeometry relative="1" as="geometry">
                        <mxPoint x="140" y="65" as="targetPoint"/>
                        <mxPoint x="88.53553390593243" y="71.06446609406737" as="sourcePoint"/>
                    </mxGeometry>
                </mxCell>
                <mxCell id="115" style="rounded=0;orthogonalLoop=1;jettySize=auto;html=1;exitX=1;exitY=0.5;exitDx=0;exitDy=0;startArrow=none;startFill=0;endArrow=none;endFill=0;fontColor=#FFFFFF;entryX=0;entryY=1;entryDx=0;entryDy=0;strokeColor=#2B4C7F;dashed=1;dashPattern=1 1;" parent="119" source="106" target="104" edge="1">
                    <mxGeometry relative="1" as="geometry">
                        <mxPoint x="150" y="75" as="targetPoint"/>
                        <mxPoint x="98.53553390593243" y="81.06446609406737" as="sourcePoint"/>
                    </mxGeometry>
                </mxCell>
                <mxCell id="120" value="2" style="ellipse;whiteSpace=wrap;html=1;aspect=fixed;fontColor=#FFFFFF;fillColor=#8FBE00;strokeColor=none;" parent="1" vertex="1">
                    <mxGeometry x="1290" y="345" width="30" height="30" as="geometry"/>
                </mxCell>
                <mxCell id="121" value="3" style="ellipse;whiteSpace=wrap;html=1;aspect=fixed;fontColor=#FFFFFF;fillColor=#8FBE00;strokeColor=none;" parent="1" vertex="1">
                    <mxGeometry x="1451.51" y="550" width="30" height="30" as="geometry"/>
                </mxCell>
                <mxCell id="122" value="4" style="ellipse;whiteSpace=wrap;html=1;aspect=fixed;fontColor=#FFFFFF;fillColor=#8FBE00;strokeColor=none;" parent="1" vertex="1">
                    <mxGeometry x="1062.01" y="550" width="30" height="30" as="geometry"/>
                </mxCell>
                <mxCell id="123" value="6" style="ellipse;whiteSpace=wrap;html=1;aspect=fixed;fontColor=#FFFFFF;fillColor=#8FBE00;strokeColor=none;" parent="1" vertex="1">
                    <mxGeometry x="1221.98" y="345" width="30" height="30" as="geometry"/>
                </mxCell>
            </root>
        </mxGraphModel>
    </diagram>
</mxfile>